<svg width="21" height="21" viewBox="0 0 21 21" fill="none" xmlns="http://www.w3.org/2000/svg">
<path d="M10.5 0C4.71345 0 0 4.71345 0 10.5C0 16.2866 4.71345 21 10.5 21C16.2866 21 21 16.2866 21 10.5C21 4.71345 16.2866 0 10.5 0ZM10.5 2.1C15.1516 2.1 18.9 5.84837 18.9 10.5C18.9 14.7152 15.8186 18.1787 11.7797 18.7934V13.004H14.2242L14.6077 10.5205H11.7797V9.16289C11.7797 8.13074 12.1159 7.21465 13.0819 7.21465H14.6323V5.04697C14.3593 5.01022 13.7832 4.93008 12.6943 4.93008C10.42 4.93008 9.08701 6.13128 9.08701 8.86758V10.5205H6.74912V13.004H9.08701V18.7729C5.1138 18.1029 2.1 14.6687 2.1 10.5C2.1 5.84837 5.84837 2.1 10.5 2.1Z" fill="#141414"/>
</svg>
