<svg width="21" height="21" viewBox="0 0 21 21" fill="none" xmlns="http://www.w3.org/2000/svg">
<path d="M5.83333 0C2.61683 0 0 2.61683 0 5.83333V15.1667C0 18.3832 2.61683 21 5.83333 21H15.1667C18.3832 21 21 18.3832 21 15.1667V5.83333C21 2.61683 18.3832 0 15.1667 0H5.83333ZM5.83333 2.33333H15.1667C17.0963 2.33333 18.6667 3.90367 18.6667 5.83333V15.1667C18.6667 17.0963 17.0963 18.6667 15.1667 18.6667H5.83333C3.90367 18.6667 2.33333 17.0963 2.33333 15.1667V5.83333C2.33333 3.90367 3.90367 2.33333 5.83333 2.33333ZM16.3333 3.5C16.0239 3.5 15.7272 3.62292 15.5084 3.84171C15.2896 4.0605 15.1667 4.35725 15.1667 4.66667C15.1667 4.97609 15.2896 5.27283 15.5084 5.49162C15.7272 5.71042 16.0239 5.83333 16.3333 5.83333C16.6428 5.83333 16.9395 5.71042 17.1583 5.49162C17.3771 5.27283 17.5 4.97609 17.5 4.66667C17.5 4.35725 17.3771 4.0605 17.1583 3.84171C16.9395 3.62292 16.6428 3.5 16.3333 3.5ZM10.5 4.66667C7.2835 4.66667 4.66667 7.2835 4.66667 10.5C4.66667 13.7165 7.2835 16.3333 10.5 16.3333C13.7165 16.3333 16.3333 13.7165 16.3333 10.5C16.3333 7.2835 13.7165 4.66667 10.5 4.66667ZM10.5 7C12.4297 7 14 8.57033 14 10.5C14 12.4297 12.4297 14 10.5 14C8.57033 14 7 12.4297 7 10.5C7 8.57033 8.57033 7 10.5 7Z" fill="#141414"/>
</svg>
