<svg width="12" height="12" viewBox="0 0 12 12" fill="none" xmlns="http://www.w3.org/2000/svg">
<g clip-path="url(#clip0_35_1422)">
<path d="M9.91675 5.38892C9.91675 8.69447 5.66675 11.5278 5.66675 11.5278C5.66675 11.5278 1.41675 8.69447 1.41675 5.38892C1.41675 4.26175 1.86451 3.18074 2.66154 2.38371C3.45857 1.58668 4.53958 1.13892 5.66675 1.13892C6.79392 1.13892 7.87492 1.58668 8.67195 2.38371C9.46898 3.18074 9.91675 4.26175 9.91675 5.38892Z" stroke="#0049CC" stroke-linecap="round" stroke-linejoin="round"/>
<path d="M5.66667 6.80556C6.44907 6.80556 7.08333 6.1713 7.08333 5.3889C7.08333 4.60649 6.44907 3.97223 5.66667 3.97223C4.88426 3.97223 4.25 4.60649 4.25 5.3889C4.25 6.1713 4.88426 6.80556 5.66667 6.80556Z" stroke="#0049CC" stroke-linecap="round" stroke-linejoin="round"/>
</g>
<defs>
<clipPath id="clip0_35_1422">
<rect width="11.3333" height="12" fill="white"/>
</clipPath>
</defs>
</svg>
