<svg width="26" height="26" viewBox="0 0 26 26" fill="none" xmlns="http://www.w3.org/2000/svg">
<path d="M13.0128 2.16663C7.04794 2.16663 2.19219 7.0182 2.19002 12.983C2.18894 14.8897 2.68834 16.7511 3.63517 18.3912L2.16675 23.8333L7.83521 22.4939C9.41579 23.3563 11.1951 23.8089 13.0064 23.81H13.0107C18.9744 23.81 23.828 18.9574 23.8313 12.9936C23.8335 10.1022 22.7091 7.38367 20.6659 5.33834C18.6228 3.29409 15.9074 2.16771 13.0128 2.16663ZM13.0107 4.33329C15.3247 4.33438 17.4993 5.23657 19.134 6.87024C20.7688 8.50607 21.6668 10.6797 21.6646 12.9915C21.6625 17.7625 17.7817 21.6434 13.0085 21.6434C11.5645 21.6423 10.134 21.2797 8.8741 20.5918L8.14412 20.194L7.33797 20.3844L5.20516 20.888L5.72567 18.9541L5.96053 18.0865L5.51196 17.3079C4.7558 15.9992 4.35561 14.5029 4.35669 12.983C4.35886 8.2142 8.24074 4.33329 13.0107 4.33329ZM9.18302 7.98954C9.00211 7.98954 8.70959 8.05725 8.46151 8.32808C8.21342 8.59783 7.51359 9.25117 7.51359 10.5815C7.51359 11.9118 8.48267 13.1978 8.61808 13.3787C8.75242 13.5585 10.4886 16.3748 13.2371 17.4581C15.5207 18.3584 15.9845 18.1807 16.4807 18.1352C16.9769 18.0908 18.0814 17.4825 18.3067 16.8509C18.5321 16.2193 18.5326 15.676 18.4654 15.5644C18.3982 15.4517 18.2179 15.3846 17.947 15.2491C17.6773 15.1137 16.3479 14.461 16.0999 14.3711C15.8518 14.2811 15.6703 14.2356 15.4905 14.5065C15.3106 14.7773 14.7938 15.3846 14.6357 15.5644C14.4775 15.7453 14.3204 15.7697 14.0496 15.6342C13.7787 15.4977 12.9079 15.2115 11.8744 14.2906C11.0706 13.5746 10.5282 12.691 10.37 12.4202C10.213 12.1505 10.3552 12.0023 10.4906 11.868C10.612 11.7466 10.7594 11.5522 10.8948 11.394C11.0291 11.2358 11.0757 11.1231 11.1656 10.9433C11.2555 10.7635 11.2095 10.6048 11.1423 10.4694C11.0752 10.3339 10.5492 8.99867 10.3087 8.4635C10.1061 8.01392 9.89213 8.00347 9.6993 7.99589C9.54222 7.98939 9.36286 7.98954 9.18302 7.98954Z" fill="#141414"/>
</svg>
